HIERARCHY
ROOT Hips
{
	OFFSET 0.000000 35.082581 0.000000
	CHANNELS 6 Xposition Yposition Zposition Xrotation Yrotation Zrotation 
	JOINT Spine
	{
		OFFSET 0.000000 6.876099 0.125700
		CHANNELS 3 Xrotation Yrotation Zrotation
		JOINT Spine1
		{
			OFFSET 0.000000 5.730043 0.104720
			CHANNELS 3 Xrotation Yrotation Zrotation
			JOINT Spine1_split
			{
				OFFSET 0.000000 5.730043 0.104720
				CHANNELS 3 Xrotation Yrotation Zrotation
				JOINT Spine2
				{
					OFFSET 0.000000 5.730043 0.104720
					CHANNELS 3 Xrotation Yrotation Zrotation
					JOINT Neck
					{
						OFFSET 0.000000 10.314075 0.188496
						CHANNELS 3 Xrotation Yrotation Zrotation
						JOINT Head
						{
							OFFSET 0.000000 7.643700 -2.377400
							CHANNELS 3 Xrotation Yrotation Zrotation
							JOINT HeadTop_End
							{
								OFFSET 0.000000 43.788605 -13.619600
								CHANNELS 3 Xrotation Yrotation Zrotation
								End Site
								{
									OFFSET 0.000000 0.000000 0.000000
								}
							}
						}
					}
					JOINT LeftShoulder
					{
						OFFSET 2.196100 4.412489 0.087492
						CHANNELS 3 Xrotation Yrotation Zrotation
						JOINT LeftShoulder_split
						{
							OFFSET 2.196100 4.412489 0.087492
							CHANNELS 3 Xrotation Yrotation Zrotation
							JOINT LeftArm
							{
								OFFSET 8.771219 -2.981674 -0.026999
								CHANNELS 3 Xrotation Yrotation Zrotation
								JOINT LeftForeArm
								{
									OFFSET 8.512804 0.000000 -0.000000
									CHANNELS 3 Xrotation Yrotation Zrotation
									JOINT LeftHand
									{
										OFFSET 18.484802 0.000000 -0.000000
										CHANNELS 3 Xrotation Yrotation Zrotation
										JOINT LeftHandThumb1
										{
											OFFSET 2.499420 -1.158070 2.653252
											CHANNELS 3 Xrotation Yrotation Zrotation
											JOINT LeftHandThumb2
											{
												OFFSET 2.370079 -1.368366 1.368366
												CHANNELS 3 Xrotation Yrotation Zrotation
												JOINT LeftHandThumb3
												{
													OFFSET 2.676727 -1.545410 1.545409
													CHANNELS 3 Xrotation Yrotation Zrotation
													JOINT LeftHandThumb4
													{
														OFFSET 1.692226 -0.977005 0.977007
														CHANNELS 3 Xrotation Yrotation Zrotation
														End Site
														{
															OFFSET 0.000000 0.000000 0.000000
														}
													}
												}
											}
										}
										JOINT LeftHandIndex1
										{
											OFFSET 7.924831 -0.457527 2.345128
											CHANNELS 3 Xrotation Yrotation Zrotation
											JOINT LeftHandIndex2
											{
												OFFSET 3.643303 0.000000 0.000000
												CHANNELS 3 Xrotation Yrotation Zrotation
												JOINT LeftHandIndex3
												{
													OFFSET 3.810799 0.000000 0.000000
													CHANNELS 3 Xrotation Yrotation Zrotation
													JOINT LeftHandIndex4
													{
														OFFSET 2.403702 0.000000 0.000000
														CHANNELS 3 Xrotation Yrotation Zrotation
														End Site
														{
															OFFSET 0.000000 0.000000 0.000000
														}
													}
												}
											}
										}
										JOINT LeftHandMiddle1
										{
											OFFSET 8.563995 0.000000 -0.000000
											CHANNELS 3 Xrotation Yrotation Zrotation
											JOINT LeftHandMiddle2
											{
												OFFSET 3.861618 0.000000 0.000000
												CHANNELS 3 Xrotation Yrotation Zrotation
												JOINT LeftHandMiddle3
												{
													OFFSET 3.701603 0.000000 0.000000
													CHANNELS 3 Xrotation Yrotation Zrotation
													JOINT LeftHandMiddle4
													{
														OFFSET 2.322544 0.000000 0.000000
														CHANNELS 3 Xrotation Yrotation Zrotation
														End Site
														{
															OFFSET 0.000000 0.000000 0.000000
														}
													}
												}
											}
										}
										JOINT LeftHandRing1
										{
											OFFSET 8.426460 -0.424637 -3.286992
											CHANNELS 3 Xrotation Yrotation Zrotation
											JOINT LeftHandRing2
											{
												OFFSET 3.126408 0.000000 0.000000
												CHANNELS 3 Xrotation Yrotation Zrotation
												JOINT LeftHandRing3
												{
													OFFSET 3.085026 0.000000 0.000000
													CHANNELS 3 Xrotation Yrotation Zrotation
													JOINT LeftHandRing4
													{
														OFFSET 1.644005 0.000000 0.000000
														CHANNELS 3 Xrotation Yrotation Zrotation
														End Site
														{
															OFFSET 0.000000 0.000000 0.000000
														}
													}
												}
											}
										}
									}
								}
							}
						}
					}
					JOINT RightShoulder
					{
						OFFSET -2.196100 4.412496 0.070690
						CHANNELS 3 Xrotation Yrotation Zrotation
						JOINT RightShoulder_split
						{
							OFFSET -2.196100 4.412496 0.070690
							CHANNELS 3 Xrotation Yrotation Zrotation
							JOINT RightArm
							{
								OFFSET -8.771282 -2.981682 -0.094208
								CHANNELS 3 Xrotation Yrotation Zrotation
								JOINT RightForeArm
								{
									OFFSET -8.494598 0.000000 0.000000
									CHANNELS 3 Xrotation Yrotation Zrotation
									JOINT RightHand
									{
										OFFSET -18.483803 0.000000 0.000001
										CHANNELS 3 Xrotation Yrotation Zrotation
										JOINT RightHandThumb1
										{
											OFFSET -2.527351 -1.008072 2.575253
											CHANNELS 3 Xrotation Yrotation Zrotation
											JOINT RightHandThumb2
											{
												OFFSET -2.321518 -1.340328 1.340329
												CHANNELS 3 Xrotation Yrotation Zrotation
												JOINT RightHandThumb3
												{
													OFFSET -2.657753 -1.534454 1.534455
													CHANNELS 3 Xrotation Yrotation Zrotation
													JOINT RightHandThumb4
													{
														OFFSET -1.807510 -1.043568 1.043567
														CHANNELS 3 Xrotation Yrotation Zrotation
														End Site
														{
															OFFSET 0.000000 0.000000 0.000000
														}
													}
												}
											}
										}
										JOINT RightHandIndex1
										{
											OFFSET -8.811420 0.015533 2.887987
											CHANNELS 3 Xrotation Yrotation Zrotation
											JOINT RightHandIndex2
											{
												OFFSET -3.537502 0.000000 0.000000
												CHANNELS 3 Xrotation Yrotation Zrotation
												JOINT RightHandIndex3
												{
													OFFSET -3.356201 0.000000 0.000000
													CHANNELS 3 Xrotation Yrotation Zrotation
													JOINT RightHandIndex4
													{
														OFFSET -1.933098 0.000000 0.000000
														CHANNELS 3 Xrotation Yrotation Zrotation
														End Site
														{
															OFFSET 0.000000 0.000000 0.000000
														}
													}
												}
											}
										}
										JOINT RightHandMiddle1
										{
											OFFSET -8.178135 0.000000 0.000000
											CHANNELS 3 Xrotation Yrotation Zrotation
											JOINT RightHandMiddle2
											{
												OFFSET -3.901302 0.000000 0.000000
												CHANNELS 3 Xrotation Yrotation Zrotation
												JOINT RightHandMiddle3
												{
													OFFSET -3.909599 0.000000 0.000000
													CHANNELS 3 Xrotation Yrotation Zrotation
													JOINT RightHandMiddle4
													{
														OFFSET -2.376003 0.000000 0.000000
														CHANNELS 3 Xrotation Yrotation Zrotation
														End Site
														{
															OFFSET 0.000000 0.000000 0.000000
														}
													}
												}
											}
										}
										JOINT RightHandRing1
										{
											OFFSET -7.559013 0.014137 -2.865403
											CHANNELS 3 Xrotation Yrotation Zrotation
											JOINT RightHandRing2
											{
												OFFSET -3.449306 0.000000 0.000000
												CHANNELS 3 Xrotation Yrotation Zrotation
												JOINT RightHandRing3
												{
													OFFSET -3.362106 0.000000 0.000000
													CHANNELS 3 Xrotation Yrotation Zrotation
													JOINT RightHandRing4
													{
														OFFSET -2.076401 0.000000 0.000000
														CHANNELS 3 Xrotation Yrotation Zrotation
														End Site
														{
															OFFSET 0.000000 0.000000 0.000000
														}
													}
												}
											}
										}
									}
								}
							}
						}
					}
				}
			}
		}
	}
	JOINT LeftUpLeg
	{
		OFFSET 10.205400 -3.823500 0.155100
		CHANNELS 3 Xrotation Yrotation Zrotation
		JOINT LeftLeg
		{
			OFFSET 0.708757 -12.982077 0.567790
			CHANNELS 3 Xrotation Yrotation Zrotation
			JOINT LeftFoot
			{
				OFFSET -0.708756 -10.717838 -2.184338
				CHANNELS 3 Xrotation Yrotation Zrotation
				JOINT LeftToeBase
				{
					OFFSET 0.108149 -7.191104 7.560241
					CHANNELS 3 Xrotation Yrotation Zrotation
					JOINT LeftToe_End
					{
						OFFSET 0.070230 0.081724 4.490308
						CHANNELS 3 Xrotation Yrotation Zrotation
						End Site
						{
							OFFSET 0.000000 0.000000 0.000000
						}
					}
				}
			}
		}
	}
	JOINT RightUpLeg
	{
		OFFSET -10.205400 -3.823500 0.005500
		CHANNELS 3 Xrotation Yrotation Zrotation
		JOINT RightLeg
		{
			OFFSET -0.708756 -12.982134 0.610632
			CHANNELS 3 Xrotation Yrotation Zrotation
			JOINT RightFoot
			{
				OFFSET 0.708754 -10.717769 -1.945823
				CHANNELS 3 Xrotation Yrotation Zrotation
				JOINT RightToeBase
				{
					OFFSET -0.108140 -7.191069 7.372968
					CHANNELS 3 Xrotation Yrotation Zrotation
					JOINT RightToe_End
					{
						OFFSET -0.070227 0.081735 4.479403
						CHANNELS 3 Xrotation Yrotation Zrotation
						End Site
						{
							OFFSET 0.000000 0.000000 0.000000
						}
					}
				}
			}
		}
	}
}
MOTION
Frames: 4
Frame Time: 0.016667
0.294814 34.007420 -0.246005 2.826496 -5.543459 -1.290270 -0.411041 -0.994085 1.143959 -1.124193 -0.763621 0.960462 0.000000 0.000000 0.000000 -1.125714 -0.723787 0.985441 -4.895964 1.540610 -0.449521 -0.934610 6.880854 -0.774390 -0.000000 -0.000000 0.000000 -1.469246 10.517220 -4.984864 0.000000 0.000000 0.000000 43.879649 -68.213714 -24.791766 0.000003 -21.268099 0.000003 -25.251732 7.009060 0.097484 -3.405765 19.076274 14.453275 15.249470 14.620670 -5.800674 4.892158 5.223023 0.075646 -0.000001 -0.000002 -0.000004 0.380314 2.260830 -19.095162 0.158423 1.471497 -12.290075 0.039716 0.739999 -6.144025 0.000000 -0.000002 -0.000002 0.379675 2.259004 -19.079152 0.158838 1.473384 -12.306094 0.039729 0.740007 -6.144030 0.000001 -0.000001 -0.000001 0.380308 2.260831 -19.095156 0.158439 1.471494 -12.290080 0.039727 0.740005 -6.144029 0.000001 -0.000001 -0.000000 3.669369 5.665999 1.464148 0.000000 0.000000 0.000000 -1.701524 36.578655 65.584965 0.000013 22.959770 0.000005 -19.091362 -11.054777 9.870837 1.944040 -20.994847 -11.060305 4.637196 -8.634123 -0.225387 -1.273764 0.137314 -2.094865 -0.000000 -0.000002 -0.000000 0.194529 -1.636476 13.558120 0.162588 -1.497883 12.390185 0.040762 -0.753331 6.194051 -0.000002 0.000000 0.000002 0.194536 -1.636476 13.558122 0.162599 -1.497887 12.390193 0.040747 -0.753328 6.194035 0.000001 -0.000000 -0.000001 0.194539 -1.636478 13.558133 0.162606 -1.497883 12.390191 0.040759 -0.753331 6.194032 0.000001 -0.000000 0.000001 -15.786826 16.006892 15.274296 28.775655 7.332744 3.422632 -13.652092 6.533924 -15.298078 -0.000002 -0.000006 0.000003 -0.000000 0.000002 0.000000 -17.611732 -20.003008 -9.290215 25.297501 10.597088 -2.804982 -11.664690 0.112001 6.139850 0.000014 0.000005 -0.000002 0.000000 -0.000000 0.000000 
0.300581 34.007103 -0.249530 2.804015 -5.502407 -1.269100 -0.420655 -1.034488 1.141871 -1.133012 -0.794374 0.957289 0.000000 0.000000 0.000000 -1.134494 -0.754704 0.983291 -4.912532 1.560738 -0.428862 -0.893666 7.011522 -0.803163 -0.000000 0.000000 -0.000000 -1.470413 10.513384 -4.967286 0.000000 0.000000 0.000000 43.640206 -68.242838 -25.097581 -0.000015 -21.297116 -0.000001 -25.352231 7.076680 0.079873 -3.405763 19.076274 14.453276 15.249470 14.620672 -5.800676 4.892156 5.223022 0.075644 -0.000002 0.000003 -0.000002 0.380314 2.260830 -19.095163 0.158433 1.471499 -12.290078 0.039716 0.740001 -6.144024 -0.000001 0.000000 -0.000002 0.379678 2.259003 -19.079152 0.158843 1.473382 -12.306096 0.039722 0.740007 -6.144028 0.000000 0.000002 0.000000 0.380308 2.260831 -19.095160 0.158441 1.471494 -12.290082 0.039724 0.740004 -6.144028 -0.000001 -0.000002 0.000001 3.665461 5.656875 1.475256 0.000000 0.000000 0.000000 -1.703466 36.697551 65.596720 0.000002 22.913188 -0.000011 -18.957479 -10.909262 10.116187 1.959289 -20.982032 -11.038617 4.637214 -8.634127 -0.225403 -1.273766 0.137301 -2.094872 -0.000002 0.000000 -0.000000 0.194541 -1.636462 13.558106 0.162582 -1.497879 12.390198 0.040774 -0.753338 6.194047 0.000002 -0.000001 -0.000003 0.194539 -1.636461 13.558107 0.162591 -1.497888 12.390202 0.040763 -0.753339 6.194044 0.000001 0.000001 0.000002 0.194531 -1.636465 13.558114 0.162603 -1.497885 12.390202 0.040756 -0.753333 6.194036 0.000000 -0.000001 -0.000002 -15.767937 16.003190 15.251116 28.755076 7.328257 3.368954 -13.635067 6.492131 -15.241726 -0.000004 -0.000009 0.000001 0.000000 -0.000000 0.000000 -17.623386 -20.023731 -9.360210 25.351654 10.600857 -2.792661 -11.699843 0.113014 6.144800 0.000007 0.000002 0.000003 0.000000 -0.000002 0.000000 
0.306722 34.006401 -0.253017 2.784260 -5.464355 -1.240355 -0.425661 -1.072470 1.137259 -1.138106 -0.823450 0.951493 0.000000 0.000000 0.000000 -1.139511 -0.784103 0.978433 -4.937640 1.583682 -0.410674 -0.868419 7.152526 -0.837619 -0.000000 0.000000 -0.000000 -1.471640 10.508772 -4.946827 0.000000 0.000000 0.000000 43.432066 -68.283116 -25.363738 0.000005 -21.330134 0.000006 -25.465225 7.139497 0.050441 -3.405769 19.076274 14.453275 15.249471 14.620676 -5.800675 4.892160 5.223023 0.075642 -0.000003 0.000002 -0.000000 0.380313 2.260830 -19.095165 0.158431 1.471498 -12.290078 0.039720 0.739999 -6.144025 0.000001 -0.000002 -0.000001 0.379680 2.259004 -19.079152 0.158838 1.473384 -12.306094 0.039725 0.740008 -6.144028 -0.000001 -0.000000 -0.000001 0.380304 2.260834 -19.095160 0.158440 1.471495 -12.290079 0.039723 0.740003 -6.144029 0.000001 -0.000000 0.000001 3.663053 5.650921 1.476519 0.000000 0.000000 0.000000 -1.717201 36.859601 65.610319 -0.000007 22.842792 -0.000017 -18.751857 -10.780440 10.391284 2.004041 -20.944346 -10.974922 4.637207 -8.634131 -0.225429 -1.273764 0.137311 -2.094878 0.000003 -0.000000 0.000001 0.194565 -1.636471 13.558118 0.162586 -1.497886 12.390204 0.040763 -0.753332 6.194032 0.000002 -0.000001 -0.000000 0.194552 -1.636466 13.558122 0.162606 -1.497889 12.390197 0.040757 -0.753334 6.194028 0.000001 0.000002 0.000003 0.194554 -1.636478 13.558124 0.162613 -1.497885 12.390202 0.040755 -0.753335 6.194027 0.000001 0.000002 0.000003 -15.744940 16.004236 15.214651 28.725289 7.325433 3.321580 -13.613060 6.451064 -15.186191 -0.000001 -0.000008 0.000002 0.000000 -0.000001 0.000000 -17.654308 -20.044312 -9.444792 25.428461 10.605026 -2.780888 -11.746553 0.119985 6.149934 0.000003 0.000004 0.000002 0.000000 0.000000 0.000000 
0.313863 34.005177 -0.256227 2.772803 -5.436112 -1.198988 -0.424169 -1.106146 1.129472 -1.138049 -0.849447 0.942093 0.000000 0.000000 0.000000 -1.139338 -0.810646 0.969838 -4.977106 1.608953 -0.396729 -0.867553 7.298592 -0.878809 -0.000000 -0.000000 -0.000000 -1.472788 10.501844 -4.921283 0.000000 0.000000 0.000000 43.262811 -68.342265 -25.576280 -0.000010 -21.363949 -0.000025 -25.588665 7.196888 -0.002520 -3.405759 19.076280 14.453278 15.249470 14.620672 -5.800673 4.892159 5.223022 0.075644 -0.000004 -0.000003 -0.000002 0.380316 2.260830 -19.095163 0.158428 1.471498 -12.290080 0.039717 0.740000 -6.144022 0.000001 0.000001 0.000000 0.379678 2.259004 -19.079152 0.158841 1.473384 -12.306093 0.039719 0.740007 -6.144028 0.000000 0.000003 0.000000 0.380311 2.260830 -19.095158 0.158439 1.471495 -12.290082 0.039724 0.740004 -6.144024 -0.000000 -0.000002 -0.000001 3.662698 5.649601 1.468087 0.000000 0.000000 0.000000 -1.746186 37.070695 65.621562 -0.000015 22.738560 0.000004 -18.460270 -10.670044 10.687658 2.076851 -20.882766 -10.871365 4.637190 -8.634128 -0.225389 -1.273758 0.137308 -2.094885 -0.000001 -0.000001 0.000003 0.194539 -1.636466 13.558117 0.162615 -1.497875 12.390206 0.040754 -0.753339 6.194035 -0.000000 0.000001 0.000001 0.194540 -1.636467 13.558120 0.162617 -1.497883 12.390202 0.040761 -0.753341 6.194036 -0.000002 -0.000000 0.000002 0.194541 -1.636474 13.558120 0.162621 -1.497874 12.390206 0.040752 -0.753339 6.194030 0.000003 0.000001 0.000003 -15.716226 16.024918 15.156121 28.675921 7.326222 3.289400 -13.586178 6.407480 -15.135317 -0.000000 -0.000010 0.000001 -0.000000 0.000002 0.000000 -17.722090 -20.053367 -9.550941 25.541397 10.609556 -2.768998 -11.805352 0.131514 6.154929 0.000010 0.000011 -0.000001 0.000000 0.000001 0.000000 
